<svg xmlns="http://www.w3.org/2000/svg" width="20" height="20" viewBox="0 0 1280.000000 1280.000000"
 preserveAspectRatio="xMidYMid meet">
<g transform="translate(0.000000,1280.000000) scale(0.100000,-0.100000)"
fill="#000000" stroke="none">
<path d="M5995 12794 c-913 -71 -1659 -270 -2430 -649 -1258 -619 -2292 -1653
-2910 -2910 -376 -765 -586 -1548 -646 -2409 -15 -223 -6 -849 15 -1046 92
-849 301 -1568 661 -2275 634 -1243 1640 -2239 2880 -2850 705 -347 1401 -545
2220 -632 245 -26 985 -26 1230 0 957 102 1794 370 2595 832 1185 684 2156
1781 2682 3030 271 643 414 1214 490 1955 21 201 17 961 -5 1175 -135 1277
-584 2388 -1362 3370 -998 1259 -2450 2104 -4030 2345 -338 51 -489 62 -925
65 -228 1 -437 1 -465 -1z m-1665 -3248 c160 -27 4995 -1056 5076 -1081 260
-80 338 -259 217 -500 -14 -27 -288 -405 -608 -840 -319 -434 -584 -795 -588
-802 -5 -7 146 -170 395 -429 222 -229 418 -437 436 -463 34 -47 62 -125 62
-173 0 -25 -4 -28 -31 -28 -37 0 -1438 97 -1526 105 l-62 7 -1340 1483 c-737
815 -1352 1492 -1367 1504 -80 63 -129 -20 -86 -144 10 -27 542 -882 1182
-1900 641 -1017 1164 -1852 1164 -1855 -36 -130 -505 -1614 -524 -1655 -15
-33 -41 -77 -58 -97 -115 -130 -247 -69 -363 167 -43 89 -2383 6142 -2431
6290 -42 130 -5 281 87 348 49 35 74 46 145 63 74 17 119 17 220 0z"/>
</g>
</svg>
